<svg xmlns="http://www.w3.org/2000/svg" width="103" height="113" viewBox="0 0 103 113"><defs><mask id="ylcab" width="2" height="2" x="-1" y="-1"><path fill="#fff" d="M4 4h95v105H4z"/><path d="M95.663 109H7.335A3.344 3.344 0 0 1 4 105.654V7.345A3.345 3.345 0 0 1 7.335 4h88.33A3.345 3.345 0 0 1 99 7.345v98.31A3.344 3.344 0 0 1 95.663 109zM7.335 7.34l-.002.005v98.31l88.332.005.002-98.315zm83.327 96.65h-34.99a3.348 3.348 0 0 1-3.339-3.351V12.36a3.348 3.348 0 0 1 3.339-3.35h34.99A3.348 3.348 0 0 1 94 12.36v88.278a3.348 3.348 0 0 1-3.338 3.35zM55.667 12.36v88.279l34.995.01.005-88.288zm29.511 81.118a1.66 1.66 0 0 1-2.356 0 1.67 1.67 0 0 1 0-2.361l1.666-1.67a1.662 1.662 0 0 1 2.357 0 1.67 1.67 0 0 1 0 2.361zM73.512 96.82a1.66 1.66 0 0 1-2.357 0 1.671 1.671 0 0 1 0-2.362l11.667-11.691a1.662 1.662 0 0 1 2.356 0 1.671 1.671 0 0 1 0 2.362zm8.338-2.367c.3.318.483.752.483 1.186 0 .217-.05.434-.133.635-.083.217-.2.384-.35.551-.317.3-.75.484-1.183.484-.434 0-.867-.183-1.184-.484a1.557 1.557 0 0 1-.35-.551 1.665 1.665 0 0 1-.133-.635c0-.45.183-.868.483-1.186.617-.618 1.734-.618 2.367 0zm-34.522 9.537h-34.99A3.348 3.348 0 0 1 9 100.64V12.36a3.348 3.348 0 0 1 3.338-3.35h34.99a3.348 3.348 0 0 1 3.339 3.35v88.278a3.348 3.348 0 0 1-3.339 3.35zm-34.99-91.648l-.005.01v88.288l34.995.01.005-88.298zm13.627 13.764a1.66 1.66 0 0 1-2.357 0 1.67 1.67 0 0 1 0-2.362l7.547-7.562a1.662 1.662 0 0 1 2.357 0 1.67 1.67 0 0 1 0 2.361zm-7.453-2.552a1.66 1.66 0 0 1-2.357 0 1.67 1.67 0 0 1 0-2.362l5-5.01a1.662 1.662 0 0 1 2.357 0 1.67 1.67 0 0 1 0 2.361zm.976 4.32a1.662 1.662 0 0 1 2.357 0 1.67 1.67 0 0 1 0 2.36l-1.667 1.67a1.66 1.66 0 0 1-2.356 0 1.67 1.67 0 0 1 0-2.361z"/></mask><filter id="ylcaa" width="125" height="135" x="-11" y="-11" filterUnits="userSpaceOnUse"><feOffset in="SourceGraphic" result="FeOffset1103Out"/><feGaussianBlur in="FeOffset1103Out" result="FeGaussianBlur1104Out" stdDeviation="2 2"/></filter></defs><g><g><g filter="url(#ylcaa)"><path fill="none" d="M95.663 109H7.335A3.344 3.344 0 0 1 4 105.654V7.345A3.345 3.345 0 0 1 7.335 4h88.33A3.345 3.345 0 0 1 99 7.345v98.31A3.344 3.344 0 0 1 95.663 109zM7.335 7.34l-.002.005v98.31l88.332.005.002-98.315zm83.327 96.65h-34.99a3.348 3.348 0 0 1-3.339-3.351V12.36a3.348 3.348 0 0 1 3.339-3.35h34.99A3.348 3.348 0 0 1 94 12.36v88.278a3.348 3.348 0 0 1-3.338 3.35zM55.667 12.36v88.279l34.995.01.005-88.288zm29.511 81.118a1.66 1.66 0 0 1-2.356 0 1.67 1.67 0 0 1 0-2.361l1.666-1.67a1.662 1.662 0 0 1 2.357 0 1.67 1.67 0 0 1 0 2.361zM73.512 96.82a1.66 1.66 0 0 1-2.357 0 1.671 1.671 0 0 1 0-2.362l11.667-11.691a1.662 1.662 0 0 1 2.356 0 1.671 1.671 0 0 1 0 2.362zm8.338-2.367c.3.318.483.752.483 1.186 0 .217-.05.434-.133.635-.083.217-.2.384-.35.551-.317.3-.75.484-1.183.484-.434 0-.867-.183-1.184-.484a1.557 1.557 0 0 1-.35-.551 1.665 1.665 0 0 1-.133-.635c0-.45.183-.868.483-1.186.617-.618 1.734-.618 2.367 0zm-34.522 9.537h-34.99A3.348 3.348 0 0 1 9 100.64V12.36a3.348 3.348 0 0 1 3.338-3.35h34.99a3.348 3.348 0 0 1 3.339 3.35v88.278a3.348 3.348 0 0 1-3.339 3.35zm-34.99-91.648l-.005.01v88.288l34.995.01.005-88.298zm13.627 13.764a1.66 1.66 0 0 1-2.357 0 1.67 1.67 0 0 1 0-2.362l7.547-7.562a1.662 1.662 0 0 1 2.357 0 1.67 1.67 0 0 1 0 2.361zm-7.453-2.552a1.66 1.66 0 0 1-2.357 0 1.67 1.67 0 0 1 0-2.362l5-5.01a1.662 1.662 0 0 1 2.357 0 1.67 1.67 0 0 1 0 2.361zm.976 4.32a1.662 1.662 0 0 1 2.357 0 1.67 1.67 0 0 1 0 2.36l-1.667 1.67a1.66 1.66 0 0 1-2.356 0 1.67 1.67 0 0 1 0-2.361z" mask="url(&quot;#ylcab&quot;)"/><path fill="#005ecf" fill-opacity=".75" d="M95.663 109H7.335A3.344 3.344 0 0 1 4 105.654V7.345A3.345 3.345 0 0 1 7.335 4h88.33A3.345 3.345 0 0 1 99 7.345v98.31A3.344 3.344 0 0 1 95.663 109zM7.335 7.34l-.002.005v98.31l88.332.005.002-98.315zm83.327 96.65h-34.99a3.348 3.348 0 0 1-3.339-3.351V12.36a3.348 3.348 0 0 1 3.339-3.35h34.99A3.348 3.348 0 0 1 94 12.36v88.278a3.348 3.348 0 0 1-3.338 3.35zM55.667 12.36v88.279l34.995.01.005-88.288zm29.511 81.118a1.66 1.66 0 0 1-2.356 0 1.67 1.67 0 0 1 0-2.361l1.666-1.67a1.662 1.662 0 0 1 2.357 0 1.67 1.67 0 0 1 0 2.361zM73.512 96.82a1.66 1.66 0 0 1-2.357 0 1.671 1.671 0 0 1 0-2.362l11.667-11.691a1.662 1.662 0 0 1 2.356 0 1.671 1.671 0 0 1 0 2.362zm8.338-2.367c.3.318.483.752.483 1.186 0 .217-.05.434-.133.635-.083.217-.2.384-.35.551-.317.3-.75.484-1.183.484-.434 0-.867-.183-1.184-.484a1.557 1.557 0 0 1-.35-.551 1.665 1.665 0 0 1-.133-.635c0-.45.183-.868.483-1.186.617-.618 1.734-.618 2.367 0zm-34.522 9.537h-34.99A3.348 3.348 0 0 1 9 100.64V12.36a3.348 3.348 0 0 1 3.338-3.35h34.99a3.348 3.348 0 0 1 3.339 3.35v88.278a3.348 3.348 0 0 1-3.339 3.35zm-34.99-91.648l-.005.01v88.288l34.995.01.005-88.298zm13.627 13.764a1.66 1.66 0 0 1-2.357 0 1.67 1.67 0 0 1 0-2.362l7.547-7.562a1.662 1.662 0 0 1 2.357 0 1.67 1.67 0 0 1 0 2.361zm-7.453-2.552a1.66 1.66 0 0 1-2.357 0 1.67 1.67 0 0 1 0-2.362l5-5.01a1.662 1.662 0 0 1 2.357 0 1.67 1.67 0 0 1 0 2.361zm.976 4.32a1.662 1.662 0 0 1 2.357 0 1.67 1.67 0 0 1 0 2.36l-1.667 1.67a1.66 1.66 0 0 1-2.356 0 1.67 1.67 0 0 1 0-2.361z"/></g><path fill="#fff" d="M95.663 109H7.335A3.344 3.344 0 0 1 4 105.654V7.345A3.345 3.345 0 0 1 7.335 4h88.33A3.345 3.345 0 0 1 99 7.345v98.31A3.344 3.344 0 0 1 95.663 109zM7.335 7.34l-.002.005v98.31l88.332.005.002-98.315zm83.327 96.65h-34.99a3.348 3.348 0 0 1-3.339-3.351V12.36a3.348 3.348 0 0 1 3.339-3.35h34.99A3.348 3.348 0 0 1 94 12.36v88.278a3.348 3.348 0 0 1-3.338 3.35zM55.667 12.36v88.279l34.995.01.005-88.288zm29.511 81.118a1.66 1.66 0 0 1-2.356 0 1.67 1.67 0 0 1 0-2.361l1.666-1.67a1.662 1.662 0 0 1 2.357 0 1.67 1.67 0 0 1 0 2.361zM73.512 96.82a1.66 1.66 0 0 1-2.357 0 1.671 1.671 0 0 1 0-2.362l11.667-11.691a1.662 1.662 0 0 1 2.356 0 1.671 1.671 0 0 1 0 2.362zm8.338-2.367c.3.318.483.752.483 1.186 0 .217-.05.434-.133.635-.083.217-.2.384-.35.551-.317.3-.75.484-1.183.484-.434 0-.867-.183-1.184-.484a1.557 1.557 0 0 1-.35-.551 1.665 1.665 0 0 1-.133-.635c0-.45.183-.868.483-1.186.617-.618 1.734-.618 2.367 0zm-34.522 9.537h-34.99A3.348 3.348 0 0 1 9 100.64V12.36a3.348 3.348 0 0 1 3.338-3.35h34.99a3.348 3.348 0 0 1 3.339 3.35v88.278a3.348 3.348 0 0 1-3.339 3.35zm-34.99-91.648l-.005.01v88.288l34.995.01.005-88.298zm13.627 13.764a1.66 1.66 0 0 1-2.357 0 1.67 1.67 0 0 1 0-2.362l7.547-7.562a1.662 1.662 0 0 1 2.357 0 1.67 1.67 0 0 1 0 2.361zm-7.453-2.552a1.66 1.66 0 0 1-2.357 0 1.67 1.67 0 0 1 0-2.362l5-5.01a1.662 1.662 0 0 1 2.357 0 1.67 1.67 0 0 1 0 2.361zm.976 4.32a1.662 1.662 0 0 1 2.357 0 1.67 1.67 0 0 1 0 2.36l-1.667 1.67a1.66 1.66 0 0 1-2.356 0 1.67 1.67 0 0 1 0-2.361z"/></g></g></svg>