<svg xmlns="http://www.w3.org/2000/svg" width="112" height="112" viewBox="0 0 112 112"><defs><mask id="h3ybb" width="2" height="2" x="-1" y="-1"><path fill="#fff" d="M4 4h104v104H4z"/><path d="M107.511 38.126l-66.8 66.806A10.435 10.435 0 0 1 33.28 108c-2.815 0-5.454-1.09-7.432-3.068L7.073 86.156c-4.097-4.098-4.097-10.766 0-14.864l66.8-66.806a1.66 1.66 0 0 1 2.348 0l31.29 31.293a1.66 1.66 0 0 1 0 2.347zM75.047 8.006L9.42 73.64c-2.804 2.804-2.804 7.366 0 10.17l18.775 18.776a7.138 7.138 0 0 0 5.085 2.096 7.14 7.14 0 0 0 5.084-2.096l65.627-65.633zM36.325 97.583L14.42 75.678a1.66 1.66 0 0 1 2.347-2.347l21.904 21.905a1.66 1.66 0 1 1-2.347 2.347zm1.565-13.3a1.66 1.66 0 0 1 2.346 0l3.13 3.13a1.66 1.66 0 1 1-2.348 2.347l-3.128-3.13a1.66 1.66 0 0 1 0-2.346zm6.258-6.258a1.659 1.659 0 0 1 2.347 0l3.129 3.129a1.66 1.66 0 0 1-2.347 2.347l-3.13-3.13a1.66 1.66 0 0 1 .001-2.346zm6.258-6.259a1.66 1.66 0 0 1 2.347 0l3.13 3.13a1.66 1.66 0 1 1-2.348 2.347l-3.13-3.13a1.66 1.66 0 0 1 0-2.347zm4.973-14.584a4.985 4.985 0 0 1 0-7.041 4.947 4.947 0 0 1 3.52-1.459c1.33 0 2.58.518 3.52 1.459a4.985 4.985 0 0 1 0 7.04 4.946 4.946 0 0 1-3.52 1.459c-1.33 0-2.58-.518-3.52-1.458zm4.694-4.694a1.648 1.648 0 0 0-1.174-.486 1.661 1.661 0 0 0 0 3.319 1.661 1.661 0 0 0 1.173-2.833zm-9.388-7.041a11.54 11.54 0 0 1 8.214-3.403 11.54 11.54 0 0 1 8.214 3.403 11.516 11.516 0 0 1 2.74 4.343 1.66 1.66 0 1 1-3.13 1.104 8.217 8.217 0 0 0-1.957-3.1 8.242 8.242 0 0 0-5.867-2.43c-2.217 0-4.3.863-5.867 2.43-3.235 3.235-3.235 8.5 0 11.735a8.24 8.24 0 0 0 5.867 2.43 8.24 8.24 0 0 0 5.867-2.43 8.22 8.22 0 0 0 1.957-3.1 1.66 1.66 0 1 1 3.13 1.104 11.516 11.516 0 0 1-2.74 4.343 11.54 11.54 0 0 1-8.214 3.402 11.54 11.54 0 0 1-8.214-3.402c-4.529-4.53-4.529-11.9 0-16.43zm18.495-8.103a1.659 1.659 0 0 1 2.347 0l3.13 3.129a1.66 1.66 0 1 1-2.347 2.347l-3.13-3.13a1.66 1.66 0 0 1 0-2.346zm6.258-6.26a1.66 1.66 0 0 1 2.347 0l3.13 3.13a1.66 1.66 0 1 1-2.347 2.347l-3.13-3.129a1.66 1.66 0 0 1 0-2.347zm3.911 14.083l3.13 3.13a1.66 1.66 0 1 1-2.347 2.346l-3.13-3.13a1.66 1.66 0 1 1 2.347-2.346zm3.912-6.258a1.659 1.659 0 0 1 2.347 0l3.129 3.129a1.66 1.66 0 1 1-2.347 2.347l-3.129-3.13a1.659 1.659 0 0 1 0-2.346zm6.258-6.259a1.659 1.659 0 0 1 2.347 0l3.129 3.13a1.66 1.66 0 1 1-2.347 2.346l-3.129-3.13a1.66 1.66 0 0 1 0-2.346zm-11.343-9.684c-.424 0-.849-.162-1.173-.487l-3.13-3.129a1.66 1.66 0 0 1 2.348-2.347l3.129 3.13a1.66 1.66 0 0 1-1.174 2.833zm-5.084 5.772a1.654 1.654 0 0 1-1.174.486c-.425 0-.85-.162-1.174-.486l-3.128-3.13a1.66 1.66 0 1 1 2.346-2.346l3.13 3.13a1.66 1.66 0 0 1 0 2.346zm-6.258 6.259a1.655 1.655 0 0 1-2.347 0l-3.13-3.13a1.66 1.66 0 0 1 2.347-2.346l3.13 3.13a1.66 1.66 0 0 1 0 2.346zM48.059 69.419a1.655 1.655 0 0 1-1.173.486c-.425 0-.85-.162-1.174-.486l-3.129-3.13a1.659 1.659 0 1 1 2.347-2.346l3.129 3.13a1.66 1.66 0 0 1 0 2.346zm-6.258 6.259a1.655 1.655 0 0 1-1.173.486c-.425 0-.85-.162-1.174-.486l-3.129-3.13a1.66 1.66 0 1 1 2.347-2.346l3.13 3.129a1.66 1.66 0 0 1 0 2.347zm-2.738-13.596c-.425 0-.85-.162-1.173-.486l-3.13-3.13a1.659 1.659 0 1 1 2.347-2.346l3.13 3.129a1.66 1.66 0 0 1-1.174 2.833zm-6.65 14.378l3.13 3.13a1.66 1.66 0 1 1-2.347 2.346l-3.13-3.13a1.66 1.66 0 1 1 2.348-2.346zm1.566-8.605a1.655 1.655 0 0 1-1.174.486c-.425 0-.85-.162-1.173-.486l-3.13-3.13a1.66 1.66 0 1 1 2.347-2.347l3.13 3.13a1.66 1.66 0 0 1 0 2.347zm-6.259 6.258a1.654 1.654 0 0 1-1.173.486c-.425 0-.85-.162-1.173-.486l-3.13-3.13a1.66 1.66 0 1 1 2.347-2.346l3.13 3.13a1.66 1.66 0 0 1 0 2.346z"/></mask><filter id="h3yba" width="134" height="134" x="-11" y="-11" filterUnits="userSpaceOnUse"><feOffset in="SourceGraphic" result="FeOffset1083Out"/><feGaussianBlur in="FeOffset1083Out" result="FeGaussianBlur1084Out" stdDeviation="2 2"/></filter></defs><g><g><g filter="url(#h3yba)"><path fill="none" d="M107.511 38.126l-66.8 66.806A10.435 10.435 0 0 1 33.28 108c-2.815 0-5.454-1.09-7.432-3.068L7.073 86.156c-4.097-4.098-4.097-10.766 0-14.864l66.8-66.806a1.66 1.66 0 0 1 2.348 0l31.29 31.293a1.66 1.66 0 0 1 0 2.347zM75.047 8.006L9.42 73.64c-2.804 2.804-2.804 7.366 0 10.17l18.775 18.776a7.138 7.138 0 0 0 5.085 2.096 7.14 7.14 0 0 0 5.084-2.096l65.627-65.633zM36.325 97.583L14.42 75.678a1.66 1.66 0 0 1 2.347-2.347l21.904 21.905a1.66 1.66 0 1 1-2.347 2.347zm1.565-13.3a1.66 1.66 0 0 1 2.346 0l3.13 3.13a1.66 1.66 0 1 1-2.348 2.347l-3.128-3.13a1.66 1.66 0 0 1 0-2.346zm6.258-6.258a1.659 1.659 0 0 1 2.347 0l3.129 3.129a1.66 1.66 0 0 1-2.347 2.347l-3.13-3.13a1.66 1.66 0 0 1 .001-2.346zm6.258-6.259a1.66 1.66 0 0 1 2.347 0l3.13 3.13a1.66 1.66 0 1 1-2.348 2.347l-3.13-3.13a1.66 1.66 0 0 1 0-2.347zm4.973-14.584a4.985 4.985 0 0 1 0-7.041 4.947 4.947 0 0 1 3.52-1.459c1.33 0 2.58.518 3.52 1.459a4.985 4.985 0 0 1 0 7.04 4.946 4.946 0 0 1-3.52 1.459c-1.33 0-2.58-.518-3.52-1.458zm4.694-4.694a1.648 1.648 0 0 0-1.174-.486 1.661 1.661 0 0 0 0 3.319 1.661 1.661 0 0 0 1.173-2.833zm-9.388-7.041a11.54 11.54 0 0 1 8.214-3.403 11.54 11.54 0 0 1 8.214 3.403 11.516 11.516 0 0 1 2.74 4.343 1.66 1.66 0 1 1-3.13 1.104 8.217 8.217 0 0 0-1.957-3.1 8.242 8.242 0 0 0-5.867-2.43c-2.217 0-4.3.863-5.867 2.43-3.235 3.235-3.235 8.5 0 11.735a8.24 8.24 0 0 0 5.867 2.43 8.24 8.24 0 0 0 5.867-2.43 8.22 8.22 0 0 0 1.957-3.1 1.66 1.66 0 1 1 3.13 1.104 11.516 11.516 0 0 1-2.74 4.343 11.54 11.54 0 0 1-8.214 3.402 11.54 11.54 0 0 1-8.214-3.402c-4.529-4.53-4.529-11.9 0-16.43zm18.495-8.103a1.659 1.659 0 0 1 2.347 0l3.13 3.129a1.66 1.66 0 1 1-2.347 2.347l-3.13-3.13a1.66 1.66 0 0 1 0-2.346zm6.258-6.26a1.66 1.66 0 0 1 2.347 0l3.13 3.13a1.66 1.66 0 1 1-2.347 2.347l-3.13-3.129a1.66 1.66 0 0 1 0-2.347zm3.911 14.083l3.13 3.13a1.66 1.66 0 1 1-2.347 2.346l-3.13-3.13a1.66 1.66 0 1 1 2.347-2.346zm3.912-6.258a1.659 1.659 0 0 1 2.347 0l3.129 3.129a1.66 1.66 0 1 1-2.347 2.347l-3.129-3.13a1.659 1.659 0 0 1 0-2.346zm6.258-6.259a1.659 1.659 0 0 1 2.347 0l3.129 3.13a1.66 1.66 0 1 1-2.347 2.346l-3.129-3.13a1.66 1.66 0 0 1 0-2.346zm-11.343-9.684c-.424 0-.849-.162-1.173-.487l-3.13-3.129a1.66 1.66 0 0 1 2.348-2.347l3.129 3.13a1.66 1.66 0 0 1-1.174 2.833zm-5.084 5.772a1.654 1.654 0 0 1-1.174.486c-.425 0-.85-.162-1.174-.486l-3.128-3.13a1.66 1.66 0 1 1 2.346-2.346l3.13 3.13a1.66 1.66 0 0 1 0 2.346zm-6.258 6.259a1.655 1.655 0 0 1-2.347 0l-3.13-3.13a1.66 1.66 0 0 1 2.347-2.346l3.13 3.13a1.66 1.66 0 0 1 0 2.346zM48.059 69.419a1.655 1.655 0 0 1-1.173.486c-.425 0-.85-.162-1.174-.486l-3.129-3.13a1.659 1.659 0 1 1 2.347-2.346l3.129 3.13a1.66 1.66 0 0 1 0 2.346zm-6.258 6.259a1.655 1.655 0 0 1-1.173.486c-.425 0-.85-.162-1.174-.486l-3.129-3.13a1.66 1.66 0 1 1 2.347-2.346l3.13 3.129a1.66 1.66 0 0 1 0 2.347zm-2.738-13.596c-.425 0-.85-.162-1.173-.486l-3.13-3.13a1.659 1.659 0 1 1 2.347-2.346l3.13 3.129a1.66 1.66 0 0 1-1.174 2.833zm-6.65 14.378l3.13 3.13a1.66 1.66 0 1 1-2.347 2.346l-3.13-3.13a1.66 1.66 0 1 1 2.348-2.346zm1.566-8.605a1.655 1.655 0 0 1-1.174.486c-.425 0-.85-.162-1.173-.486l-3.13-3.13a1.66 1.66 0 1 1 2.347-2.347l3.13 3.13a1.66 1.66 0 0 1 0 2.347zm-6.259 6.258a1.654 1.654 0 0 1-1.173.486c-.425 0-.85-.162-1.173-.486l-3.13-3.13a1.66 1.66 0 1 1 2.347-2.346l3.13 3.13a1.66 1.66 0 0 1 0 2.346z" mask="url(&quot;#h3ybb&quot;)"/><path fill="#005ecf" fill-opacity=".75" d="M107.511 38.126l-66.8 66.806A10.435 10.435 0 0 1 33.28 108c-2.815 0-5.454-1.09-7.432-3.068L7.073 86.156c-4.097-4.098-4.097-10.766 0-14.864l66.8-66.806a1.66 1.66 0 0 1 2.348 0l31.29 31.293a1.66 1.66 0 0 1 0 2.347zM75.047 8.006L9.42 73.64c-2.804 2.804-2.804 7.366 0 10.17l18.775 18.776a7.138 7.138 0 0 0 5.085 2.096 7.14 7.14 0 0 0 5.084-2.096l65.627-65.633zM36.325 97.583L14.42 75.678a1.66 1.66 0 0 1 2.347-2.347l21.904 21.905a1.66 1.66 0 1 1-2.347 2.347zm1.565-13.3a1.66 1.66 0 0 1 2.346 0l3.13 3.13a1.66 1.66 0 1 1-2.348 2.347l-3.128-3.13a1.66 1.66 0 0 1 0-2.346zm6.258-6.258a1.659 1.659 0 0 1 2.347 0l3.129 3.129a1.66 1.66 0 0 1-2.347 2.347l-3.13-3.13a1.66 1.66 0 0 1 .001-2.346zm6.258-6.259a1.66 1.66 0 0 1 2.347 0l3.13 3.13a1.66 1.66 0 1 1-2.348 2.347l-3.13-3.13a1.66 1.66 0 0 1 0-2.347zm4.973-14.584a4.985 4.985 0 0 1 0-7.041 4.947 4.947 0 0 1 3.52-1.459c1.33 0 2.58.518 3.52 1.459a4.985 4.985 0 0 1 0 7.04 4.946 4.946 0 0 1-3.52 1.459c-1.33 0-2.58-.518-3.52-1.458zm4.694-4.694a1.648 1.648 0 0 0-1.174-.486 1.661 1.661 0 0 0 0 3.319 1.661 1.661 0 0 0 1.173-2.833zm-9.388-7.041a11.54 11.54 0 0 1 8.214-3.403 11.54 11.54 0 0 1 8.214 3.403 11.516 11.516 0 0 1 2.74 4.343 1.66 1.66 0 1 1-3.13 1.104 8.217 8.217 0 0 0-1.957-3.1 8.242 8.242 0 0 0-5.867-2.43c-2.217 0-4.3.863-5.867 2.43-3.235 3.235-3.235 8.5 0 11.735a8.24 8.24 0 0 0 5.867 2.43 8.24 8.24 0 0 0 5.867-2.43 8.22 8.22 0 0 0 1.957-3.1 1.66 1.66 0 1 1 3.13 1.104 11.516 11.516 0 0 1-2.74 4.343 11.54 11.54 0 0 1-8.214 3.402 11.54 11.54 0 0 1-8.214-3.402c-4.529-4.53-4.529-11.9 0-16.43zm18.495-8.103a1.659 1.659 0 0 1 2.347 0l3.13 3.129a1.66 1.66 0 1 1-2.347 2.347l-3.13-3.13a1.66 1.66 0 0 1 0-2.346zm6.258-6.26a1.66 1.66 0 0 1 2.347 0l3.13 3.13a1.66 1.66 0 1 1-2.347 2.347l-3.13-3.129a1.66 1.66 0 0 1 0-2.347zm3.911 14.083l3.13 3.13a1.66 1.66 0 1 1-2.347 2.346l-3.13-3.13a1.66 1.66 0 1 1 2.347-2.346zm3.912-6.258a1.659 1.659 0 0 1 2.347 0l3.129 3.129a1.66 1.66 0 1 1-2.347 2.347l-3.129-3.13a1.659 1.659 0 0 1 0-2.346zm6.258-6.259a1.659 1.659 0 0 1 2.347 0l3.129 3.13a1.66 1.66 0 1 1-2.347 2.346l-3.129-3.13a1.66 1.66 0 0 1 0-2.346zm-11.343-9.684c-.424 0-.849-.162-1.173-.487l-3.13-3.129a1.66 1.66 0 0 1 2.348-2.347l3.129 3.13a1.66 1.66 0 0 1-1.174 2.833zm-5.084 5.772a1.654 1.654 0 0 1-1.174.486c-.425 0-.85-.162-1.174-.486l-3.128-3.13a1.66 1.66 0 1 1 2.346-2.346l3.13 3.13a1.66 1.66 0 0 1 0 2.346zm-6.258 6.259a1.655 1.655 0 0 1-2.347 0l-3.13-3.13a1.66 1.66 0 0 1 2.347-2.346l3.13 3.13a1.66 1.66 0 0 1 0 2.346zM48.059 69.419a1.655 1.655 0 0 1-1.173.486c-.425 0-.85-.162-1.174-.486l-3.129-3.13a1.659 1.659 0 1 1 2.347-2.346l3.129 3.13a1.66 1.66 0 0 1 0 2.346zm-6.258 6.259a1.655 1.655 0 0 1-1.173.486c-.425 0-.85-.162-1.174-.486l-3.129-3.13a1.66 1.66 0 1 1 2.347-2.346l3.13 3.129a1.66 1.66 0 0 1 0 2.347zm-2.738-13.596c-.425 0-.85-.162-1.173-.486l-3.13-3.13a1.659 1.659 0 1 1 2.347-2.346l3.13 3.129a1.66 1.66 0 0 1-1.174 2.833zm-6.65 14.378l3.13 3.13a1.66 1.66 0 1 1-2.347 2.346l-3.13-3.13a1.66 1.66 0 1 1 2.348-2.346zm1.566-8.605a1.655 1.655 0 0 1-1.174.486c-.425 0-.85-.162-1.173-.486l-3.13-3.13a1.66 1.66 0 1 1 2.347-2.347l3.13 3.13a1.66 1.66 0 0 1 0 2.347zm-6.259 6.258a1.654 1.654 0 0 1-1.173.486c-.425 0-.85-.162-1.173-.486l-3.13-3.13a1.66 1.66 0 1 1 2.347-2.346l3.13 3.13a1.66 1.66 0 0 1 0 2.346z"/></g><path fill="#fff" d="M107.511 38.126l-66.8 66.806A10.435 10.435 0 0 1 33.28 108c-2.815 0-5.454-1.09-7.432-3.068L7.073 86.156c-4.097-4.098-4.097-10.766 0-14.864l66.8-66.806a1.66 1.66 0 0 1 2.348 0l31.29 31.293a1.66 1.66 0 0 1 0 2.347zM75.047 8.006L9.42 73.64c-2.804 2.804-2.804 7.366 0 10.17l18.775 18.776a7.138 7.138 0 0 0 5.085 2.096 7.14 7.14 0 0 0 5.084-2.096l65.627-65.633zM36.325 97.583L14.42 75.678a1.66 1.66 0 0 1 2.347-2.347l21.904 21.905a1.66 1.66 0 1 1-2.347 2.347zm1.565-13.3a1.66 1.66 0 0 1 2.346 0l3.13 3.13a1.66 1.66 0 1 1-2.348 2.347l-3.128-3.13a1.66 1.66 0 0 1 0-2.346zm6.258-6.258a1.659 1.659 0 0 1 2.347 0l3.129 3.129a1.66 1.66 0 0 1-2.347 2.347l-3.13-3.13a1.66 1.66 0 0 1 .001-2.346zm6.258-6.259a1.66 1.66 0 0 1 2.347 0l3.13 3.13a1.66 1.66 0 1 1-2.348 2.347l-3.13-3.13a1.66 1.66 0 0 1 0-2.347zm4.973-14.584a4.985 4.985 0 0 1 0-7.041 4.947 4.947 0 0 1 3.52-1.459c1.33 0 2.58.518 3.52 1.459a4.985 4.985 0 0 1 0 7.04 4.946 4.946 0 0 1-3.52 1.459c-1.33 0-2.58-.518-3.52-1.458zm4.694-4.694a1.648 1.648 0 0 0-1.174-.486 1.661 1.661 0 0 0 0 3.319 1.661 1.661 0 0 0 1.173-2.833zm-9.388-7.041a11.54 11.54 0 0 1 8.214-3.403 11.54 11.54 0 0 1 8.214 3.403 11.516 11.516 0 0 1 2.74 4.343 1.66 1.66 0 1 1-3.13 1.104 8.217 8.217 0 0 0-1.957-3.1 8.242 8.242 0 0 0-5.867-2.43c-2.217 0-4.3.863-5.867 2.43-3.235 3.235-3.235 8.5 0 11.735a8.24 8.24 0 0 0 5.867 2.43 8.24 8.24 0 0 0 5.867-2.43 8.22 8.22 0 0 0 1.957-3.1 1.66 1.66 0 1 1 3.13 1.104 11.516 11.516 0 0 1-2.74 4.343 11.54 11.54 0 0 1-8.214 3.402 11.54 11.54 0 0 1-8.214-3.402c-4.529-4.53-4.529-11.9 0-16.43zm18.495-8.103a1.659 1.659 0 0 1 2.347 0l3.13 3.129a1.66 1.66 0 1 1-2.347 2.347l-3.13-3.13a1.66 1.66 0 0 1 0-2.346zm6.258-6.26a1.66 1.66 0 0 1 2.347 0l3.13 3.13a1.66 1.66 0 1 1-2.347 2.347l-3.13-3.129a1.66 1.66 0 0 1 0-2.347zm3.911 14.083l3.13 3.13a1.66 1.66 0 1 1-2.347 2.346l-3.13-3.13a1.66 1.66 0 1 1 2.347-2.346zm3.912-6.258a1.659 1.659 0 0 1 2.347 0l3.129 3.129a1.66 1.66 0 1 1-2.347 2.347l-3.129-3.13a1.659 1.659 0 0 1 0-2.346zm6.258-6.259a1.659 1.659 0 0 1 2.347 0l3.129 3.13a1.66 1.66 0 1 1-2.347 2.346l-3.129-3.13a1.66 1.66 0 0 1 0-2.346zm-11.343-9.684c-.424 0-.849-.162-1.173-.487l-3.13-3.129a1.66 1.66 0 0 1 2.348-2.347l3.129 3.13a1.66 1.66 0 0 1-1.174 2.833zm-5.084 5.772a1.654 1.654 0 0 1-1.174.486c-.425 0-.85-.162-1.174-.486l-3.128-3.13a1.66 1.66 0 1 1 2.346-2.346l3.13 3.13a1.66 1.66 0 0 1 0 2.346zm-6.258 6.259a1.655 1.655 0 0 1-2.347 0l-3.13-3.13a1.66 1.66 0 0 1 2.347-2.346l3.13 3.13a1.66 1.66 0 0 1 0 2.346zM48.059 69.419a1.655 1.655 0 0 1-1.173.486c-.425 0-.85-.162-1.174-.486l-3.129-3.13a1.659 1.659 0 1 1 2.347-2.346l3.129 3.13a1.66 1.66 0 0 1 0 2.346zm-6.258 6.259a1.655 1.655 0 0 1-1.173.486c-.425 0-.85-.162-1.174-.486l-3.129-3.13a1.66 1.66 0 1 1 2.347-2.346l3.13 3.129a1.66 1.66 0 0 1 0 2.347zm-2.738-13.596c-.425 0-.85-.162-1.173-.486l-3.13-3.13a1.659 1.659 0 1 1 2.347-2.346l3.13 3.129a1.66 1.66 0 0 1-1.174 2.833zm-6.65 14.378l3.13 3.13a1.66 1.66 0 1 1-2.347 2.346l-3.13-3.13a1.66 1.66 0 1 1 2.348-2.346zm1.566-8.605a1.655 1.655 0 0 1-1.174.486c-.425 0-.85-.162-1.173-.486l-3.13-3.13a1.66 1.66 0 1 1 2.347-2.347l3.13 3.13a1.66 1.66 0 0 1 0 2.347zm-6.259 6.258a1.654 1.654 0 0 1-1.173.486c-.425 0-.85-.162-1.173-.486l-3.13-3.13a1.66 1.66 0 1 1 2.347-2.346l3.13 3.13a1.66 1.66 0 0 1 0 2.346z"/></g></g></svg>