<svg xmlns="http://www.w3.org/2000/svg" width="102" height="123" viewBox="0 0 102 123"><defs><mask id="o4wjb" width="2" height="2" x="-1" y="-1"><path fill="#fff" d="M4 4h94v115H4z"/><path d="M51 82.035c26.156 0 47 8.215 47 18.483C98 110.785 77.156 119 51 119c-26.157 0-47-8.215-47-18.482 0-7.393 11.852-13.964 28.609-16.84V4l57.217 24.643-53.13 23v31.214c4.495-.41 9.4-.822 14.304-.822zm28.609-53.392L36.696 10.16v36.965zm-44.957 78.035c-5.722 0-10.217-2.874-10.217-6.16s3.678-5.75 8.174-6.161v-6.982c-14.305 2.464-24.522 7.393-24.522 13.143 0 7.803 19.209 14.374 42.913 14.374 23.704 0 42.913-6.57 42.913-14.374S74.704 86.143 51 86.143c-4.904 0-9.809.41-14.304.821v7.393c4.495.821 8.173 3.285 8.173 6.16 0 3.287-4.495 6.161-10.217 6.161zm32.696-12.321c3.386 0 6.13 1.839 6.13 4.107 0 2.268-2.744 4.107-6.13 4.107-3.386 0-6.13-1.839-6.13-4.107 0-2.268 2.744-4.107 6.13-4.107z"/></mask><filter id="o4wja" width="124" height="145" x="-11" y="-11" filterUnits="userSpaceOnUse"><feOffset in="SourceGraphic" result="FeOffset1063Out"/><feGaussianBlur in="FeOffset1063Out" result="FeGaussianBlur1064Out" stdDeviation="2 2"/></filter></defs><g><g><g filter="url(#o4wja)"><path fill="none" d="M51 82.035c26.156 0 47 8.215 47 18.483C98 110.785 77.156 119 51 119c-26.157 0-47-8.215-47-18.482 0-7.393 11.852-13.964 28.609-16.84V4l57.217 24.643-53.13 23v31.214c4.495-.41 9.4-.822 14.304-.822zm28.609-53.392L36.696 10.16v36.965zm-44.957 78.035c-5.722 0-10.217-2.874-10.217-6.16s3.678-5.75 8.174-6.161v-6.982c-14.305 2.464-24.522 7.393-24.522 13.143 0 7.803 19.209 14.374 42.913 14.374 23.704 0 42.913-6.57 42.913-14.374S74.704 86.143 51 86.143c-4.904 0-9.809.41-14.304.821v7.393c4.495.821 8.173 3.285 8.173 6.16 0 3.287-4.495 6.161-10.217 6.161zm32.696-12.321c3.386 0 6.13 1.839 6.13 4.107 0 2.268-2.744 4.107-6.13 4.107-3.386 0-6.13-1.839-6.13-4.107 0-2.268 2.744-4.107 6.13-4.107z" mask="url(&quot;#o4wjb&quot;)"/><path fill="#005ecf" fill-opacity=".75" d="M51 82.035c26.156 0 47 8.215 47 18.483C98 110.785 77.156 119 51 119c-26.157 0-47-8.215-47-18.482 0-7.393 11.852-13.964 28.609-16.84V4l57.217 24.643-53.13 23v31.214c4.495-.41 9.4-.822 14.304-.822zm28.609-53.392L36.696 10.16v36.965zm-44.957 78.035c-5.722 0-10.217-2.874-10.217-6.16s3.678-5.75 8.174-6.161v-6.982c-14.305 2.464-24.522 7.393-24.522 13.143 0 7.803 19.209 14.374 42.913 14.374 23.704 0 42.913-6.57 42.913-14.374S74.704 86.143 51 86.143c-4.904 0-9.809.41-14.304.821v7.393c4.495.821 8.173 3.285 8.173 6.16 0 3.287-4.495 6.161-10.217 6.161zm32.696-12.321c3.386 0 6.13 1.839 6.13 4.107 0 2.268-2.744 4.107-6.13 4.107-3.386 0-6.13-1.839-6.13-4.107 0-2.268 2.744-4.107 6.13-4.107z"/></g><path fill="#fff" d="M51 82.035c26.156 0 47 8.215 47 18.483C98 110.785 77.156 119 51 119c-26.157 0-47-8.215-47-18.482 0-7.393 11.852-13.964 28.609-16.84V4l57.217 24.643-53.13 23v31.214c4.495-.41 9.4-.822 14.304-.822zm28.609-53.392L36.696 10.16v36.965zm-44.957 78.035c-5.722 0-10.217-2.874-10.217-6.16s3.678-5.75 8.174-6.161v-6.982c-14.305 2.464-24.522 7.393-24.522 13.143 0 7.803 19.209 14.374 42.913 14.374 23.704 0 42.913-6.57 42.913-14.374S74.704 86.143 51 86.143c-4.904 0-9.809.41-14.304.821v7.393c4.495.821 8.173 3.285 8.173 6.16 0 3.287-4.495 6.161-10.217 6.161zm32.696-12.321c3.386 0 6.13 1.839 6.13 4.107 0 2.268-2.744 4.107-6.13 4.107-3.386 0-6.13-1.839-6.13-4.107 0-2.268 2.744-4.107 6.13-4.107z"/></g></g></svg>