<svg xmlns="http://www.w3.org/2000/svg" width="282" height="116" viewBox="0 0 282 116"><g><g><path fill="#ffc600" d="M282.01 42.59v36.263h-9.87v37.146h-28.28V78.853h-9.796l-.073-36.262s-.295-4.864 4.124-4.864 34.92-.324 39.77 0c4.419.294 4.124 4.864 4.124 4.864zm-24.157-9.286c-9.193 0-16.645-7.457-16.645-16.657S248.66-.01 257.853-.01c9.192 0 16.644 7.458 16.644 16.657 0 9.2-7.452 16.657-16.644 16.657zm-23.974-16.649c0 5.159 2.035 10.949 6.029 13.414-2.134 2.275-3.402 3.242-7.538 3.242-9.417 0-17.051-7.457-17.051-16.656C215.319 7.456 222.953 0 232.37 0c3.502 0 6.184 1.258 7.634 2.8-3.005 1.661-6.125 8.078-6.125 13.856zm-6.338 23.878v42.155h9.507V116h-19.013V78.856H208l.025-37.144s-.402-4.372 4.125-4.372c4.507 0 12.167-.029 17.435-.098-2.34.062-2.044 3.291-2.044 3.291zm2.044-3.29zM207.88 16.654c0 5.159 2.035 10.949 6.029 13.414-2.134 2.275-3.402 3.242-7.538 3.242-9.417 0-17.051-7.457-17.051-16.656C189.319 7.456 196.953 0 206.37 0c3.502 0 6.184 1.258 7.634 2.8-3.005 1.661-6.125 8.078-6.125 13.856zm-6.338 23.878v42.155h9.507V116h-19.013V78.856H182l.025-37.144s-.402-4.372 4.125-4.372c4.507 0 12.167-.029 17.435-.098-2.34.062-2.044 3.291-2.044 3.291zm2.044-3.29zM181.88 16.654c0 5.159 2.035 10.949 6.029 13.414-2.134 2.275-3.402 3.242-7.538 3.242-9.417 0-17.051-7.457-17.051-16.656C163.319 7.456 170.953 0 180.37 0c3.502 0 6.184 1.258 7.634 2.8-3.005 1.661-6.125 8.078-6.125 13.856zm-6.338 23.878v42.155h9.507V116h-19.013V78.856H156l.025-37.144s-.402-4.372 4.125-4.372c4.507 0 12.167-.029 17.435-.098-2.34.062-2.044 3.291-2.044 3.291zm2.044-3.29zM155.88 16.654c0 5.159 2.035 10.949 6.029 13.414-2.134 2.275-3.402 3.242-7.538 3.242-9.417 0-17.051-7.457-17.051-16.656C137.319 7.456 144.953 0 154.37 0c3.502 0 6.184 1.258 7.634 2.8-3.005 1.661-6.125 8.078-6.125 13.856zm-6.338 23.878v42.155h9.507V116h-19.013V78.856H130l.025-37.144s-.402-4.372 4.125-4.372c4.507 0 12.167-.029 17.435-.098-2.34.062-2.044 3.291-2.044 3.291zm2.044-3.29zM129.88 16.654c0 5.159 2.035 10.949 6.03 13.414-2.135 2.275-3.403 3.242-7.539 3.242-9.417 0-17.051-7.457-17.051-16.656C111.319 7.456 118.953 0 128.37 0c3.502 0 6.184 1.258 7.634 2.8-3.005 1.661-6.125 8.078-6.125 13.856zm-6.338 23.878v42.155h9.507V116h-19.013V78.856H104l.025-37.144s-.402-4.372 4.125-4.372c4.507 0 12.167-.029 17.436-.098-2.34.062-2.045 3.291-2.045 3.291zm2.044-3.29zM103.88 16.654c0 5.159 2.035 10.949 6.029 13.414-2.134 2.275-3.402 3.242-7.538 3.242-9.417 0-17.051-7.457-17.051-16.656C85.319 7.456 92.953 0 102.37 0c3.502 0 6.184 1.258 7.634 2.8-3.005 1.661-6.125 8.078-6.125 13.856zm-6.338 23.878v42.155h9.507V116H88.035V78.856H78l.025-37.144s-.402-4.372 4.125-4.372c4.507 0 12.167-.029 17.435-.098-2.34.062-2.044 3.291-2.044 3.291zm2.044-3.29zM77.88 16.654c0 5.159 2.035 10.949 6.029 13.414-2.134 2.275-3.402 3.242-7.538 3.242-9.417 0-17.051-7.457-17.051-16.656C59.319 7.456 66.953 0 76.37 0c3.502 0 6.184 1.258 7.634 2.8C81 4.46 77.88 10.878 77.88 16.656zm-6.338 23.878v42.155h9.507V116H62.035V78.856H52l.025-37.144s-.402-4.372 4.125-4.372c4.507 0 12.167-.029 17.435-.098-2.34.062-2.044 3.291-2.044 3.291zm2.044-3.29zM51.88 16.654c0 5.159 2.035 10.949 6.029 13.414-2.134 2.275-3.402 3.242-7.538 3.242-9.417 0-17.051-7.457-17.051-16.656C33.319 7.456 40.953 0 50.37 0c3.502 0 6.184 1.258 7.634 2.8C55 4.46 51.88 10.878 51.88 16.656zm-6.338 23.878v42.155h9.507V116H36.035V78.856H26l.025-37.144s-.402-4.372 4.125-4.372c4.507 0 12.167-.029 17.435-.098-2.34.062-2.044 3.291-2.044 3.291zm2.044-3.29zM25.88 16.654c0 5.159 2.035 10.949 6.029 13.414-2.134 2.275-3.402 3.242-7.538 3.242-9.417 0-17.051-7.457-17.051-16.656C7.319 7.456 14.953 0 24.37 0c3.502 0 6.184 1.258 7.634 2.8C29 4.46 25.88 10.878 25.88 16.656zm-6.338 23.878v42.155h9.507V116H10.035V78.856H0l.025-37.144S-.377 37.34 4.15 37.34c4.507 0 12.167-.029 17.435-.098-2.34.062-2.044 3.291-2.044 3.291zm2.044-3.29z"/></g></g></svg>