<svg xmlns="http://www.w3.org/2000/svg" width="100" height="107" viewBox="0 0 100 107"><defs><mask id="6vnmb" width="2" height="2" x="-1" y="-1"><path fill="#fff" d="M4 4h92v99H4z"/><path d="M90.505 56.91c-3.22 10.605-7.673 19.68-13.234 26.97-7.063 9.26-15.918 15.644-26.32 18.972a3.13 3.13 0 0 1-1.902 0c-10.401-3.329-19.256-9.712-26.32-18.972-5.561-7.291-10.014-16.365-13.234-26.971C4.063 39.02 4.001 23.084 4.001 22.415a3.117 3.117 0 0 1 2.82-3.101c.24-.024 24.467-2.508 41.346-14.752a3.123 3.123 0 0 1 3.667 0C68.709 16.806 92.939 19.29 93.18 19.314A3.119 3.119 0 0 1 96 22.415c0 .67-.062 16.605-5.494 34.494zM50 10.883C35.416 20.682 17.318 24.13 10.329 25.149c.26 5.229 1.267 17.272 5.18 30.094C22.184 77.123 33.787 91.032 50 96.602 66.25 91.02 77.866 77.062 84.535 55.1c3.886-12.798 4.882-24.749 5.138-29.952C82.685 24.13 64.582 20.684 50 10.884zm.813 56.545a3.12 3.12 0 0 1-4.508.48l-11.28-9.636a3.114 3.114 0 0 1-.343-4.393 3.12 3.12 0 0 1 4.397-.343l8.773 7.494L65.24 38.249a3.121 3.121 0 0 1 4.372-.588 3.113 3.113 0 0 1 .59 4.366z"/></mask><filter id="6vnma" width="122" height="129" x="-11" y="-11" filterUnits="userSpaceOnUse"><feOffset in="SourceGraphic" result="FeOffset1043Out"/><feGaussianBlur in="FeOffset1043Out" result="FeGaussianBlur1044Out" stdDeviation="2 2"/></filter></defs><g><g><g filter="url(#6vnma)"><path fill="none" d="M90.505 56.91c-3.22 10.605-7.673 19.68-13.234 26.97-7.063 9.26-15.918 15.644-26.32 18.972a3.13 3.13 0 0 1-1.902 0c-10.401-3.329-19.256-9.712-26.32-18.972-5.561-7.291-10.014-16.365-13.234-26.971C4.063 39.02 4.001 23.084 4.001 22.415a3.117 3.117 0 0 1 2.82-3.101c.24-.024 24.467-2.508 41.346-14.752a3.123 3.123 0 0 1 3.667 0C68.709 16.806 92.939 19.29 93.18 19.314A3.119 3.119 0 0 1 96 22.415c0 .67-.062 16.605-5.494 34.494zM50 10.883C35.416 20.682 17.318 24.13 10.329 25.149c.26 5.229 1.267 17.272 5.18 30.094C22.184 77.123 33.787 91.032 50 96.602 66.25 91.02 77.866 77.062 84.535 55.1c3.886-12.798 4.882-24.749 5.138-29.952C82.685 24.13 64.582 20.684 50 10.884zm.813 56.545a3.12 3.12 0 0 1-4.508.48l-11.28-9.636a3.114 3.114 0 0 1-.343-4.393 3.12 3.12 0 0 1 4.397-.343l8.773 7.494L65.24 38.249a3.121 3.121 0 0 1 4.372-.588 3.113 3.113 0 0 1 .59 4.366z" mask="url(&quot;#6vnmb&quot;)"/><path fill="#005ecf" fill-opacity=".75" d="M90.505 56.91c-3.22 10.605-7.673 19.68-13.234 26.97-7.063 9.26-15.918 15.644-26.32 18.972a3.13 3.13 0 0 1-1.902 0c-10.401-3.329-19.256-9.712-26.32-18.972-5.561-7.291-10.014-16.365-13.234-26.971C4.063 39.02 4.001 23.084 4.001 22.415a3.117 3.117 0 0 1 2.82-3.101c.24-.024 24.467-2.508 41.346-14.752a3.123 3.123 0 0 1 3.667 0C68.709 16.806 92.939 19.29 93.18 19.314A3.119 3.119 0 0 1 96 22.415c0 .67-.062 16.605-5.494 34.494zM50 10.883C35.416 20.682 17.318 24.13 10.329 25.149c.26 5.229 1.267 17.272 5.18 30.094C22.184 77.123 33.787 91.032 50 96.602 66.25 91.02 77.866 77.062 84.535 55.1c3.886-12.798 4.882-24.749 5.138-29.952C82.685 24.13 64.582 20.684 50 10.884zm.813 56.545a3.12 3.12 0 0 1-4.508.48l-11.28-9.636a3.114 3.114 0 0 1-.343-4.393 3.12 3.12 0 0 1 4.397-.343l8.773 7.494L65.24 38.249a3.121 3.121 0 0 1 4.372-.588 3.113 3.113 0 0 1 .59 4.366z"/></g><path fill="#fff" d="M90.505 56.91c-3.22 10.605-7.673 19.68-13.234 26.97-7.063 9.26-15.918 15.644-26.32 18.972a3.13 3.13 0 0 1-1.902 0c-10.401-3.329-19.256-9.712-26.32-18.972-5.561-7.291-10.014-16.365-13.234-26.971C4.063 39.02 4.001 23.084 4.001 22.415a3.117 3.117 0 0 1 2.82-3.101c.24-.024 24.467-2.508 41.346-14.752a3.123 3.123 0 0 1 3.667 0C68.709 16.806 92.939 19.29 93.18 19.314A3.119 3.119 0 0 1 96 22.415c0 .67-.062 16.605-5.494 34.494zM50 10.883C35.416 20.682 17.318 24.13 10.329 25.149c.26 5.229 1.267 17.272 5.18 30.094C22.184 77.123 33.787 91.032 50 96.602 66.25 91.02 77.866 77.062 84.535 55.1c3.886-12.798 4.882-24.749 5.138-29.952C82.685 24.13 64.582 20.684 50 10.884zm.813 56.545a3.12 3.12 0 0 1-4.508.48l-11.28-9.636a3.114 3.114 0 0 1-.343-4.393 3.12 3.12 0 0 1 4.397-.343l8.773 7.494L65.24 38.249a3.121 3.121 0 0 1 4.372-.588 3.113 3.113 0 0 1 .59 4.366z"/></g></g></svg>