<svg xmlns="http://www.w3.org/2000/svg" width="78" height="119" viewBox="0 0 78 119"><defs><mask id="xjnfb" width="2" height="2" x="-1" y="-1"><path fill="#fff" d="M4 4h70v111H4z"/><path d="M49.4 110.725c-1.047 2.597-3.564 4.275-6.412 4.275h-7.97c-2.848 0-5.365-1.678-6.412-4.275a2.164 2.164 0 0 1 1.213-2.82 2.187 2.187 0 0 1 2.836 1.207c.375.928 1.325 1.552 2.364 1.552h7.969c1.039 0 1.989-.624 2.363-1.552a2.186 2.186 0 0 1 2.837-1.206 2.164 2.164 0 0 1 1.213 2.819zm22.316-5.356l-4.671 5.933c-1.888 2.396-4.755 3.686-7.663 3.686a9.67 9.67 0 0 1-4.821-1.28c-4.159-2.386-5.94-7.522-4.145-11.948l2.834-6.986a10.72 10.72 0 0 1 4.81-5.381v-4.87c0-.589-.482-1.067-1.074-1.067H21.021c-.593 0-1.074.478-1.074 1.067v4.57h20.147c1.205 0 2.182.971 2.182 2.168a2.175 2.175 0 0 1-2.182 2.168h-16c.25.43.473.878.663 1.345l2.834 6.987c1.795 4.425.013 9.561-4.145 11.947a9.67 9.67 0 0 1-4.821 1.28c-2.909 0-5.776-1.29-7.663-3.686l-4.672-5.933a10.646 10.646 0 0 1-2.09-8.632 10.697 10.697 0 0 1 5.165-7.216 10.743 10.743 0 0 1-3.877-9.971 27.216 27.216 0 0 1 6.262-13.664 27.546 27.546 0 0 1 8.992-6.895c-4.2-4.452-6.775-10.433-6.775-17.002 0-13.51 10.892-24.54 24.408-24.873.052-.004.104-.008.158-.008a5.129 5.129 0 0 0 3.639-1.498 5.064 5.064 0 0 0 1.507-3.617c0-2.017-1.651-3.657-3.68-3.657h-.001c-.763 0-1.442.216-1.91.608a1.601 1.601 0 0 0-.598 1.278 2.175 2.175 0 0 1-2.182 2.168 2.175 2.175 0 0 1-2.181-2.168c0-1.801.763-3.432 2.15-4.593 1.253-1.05 2.93-1.63 4.72-1.63h.001c4.436 0 8.044 3.587 8.044 7.995 0 2.24-.78 4.359-2.21 6.055C56.33 21.01 64.04 30.622 64.04 41.989c0 6.57-2.576 12.55-6.775 17.002a27.539 27.539 0 0 1 8.991 6.895A27.213 27.213 0 0 1 72.52 79.55a10.741 10.741 0 0 1-3.877 9.972 10.699 10.699 0 0 1 5.165 7.216 10.645 10.645 0 0 1-2.09 8.632zM39.003 62.535c11.4 0 20.674-9.217 20.674-20.545 0-11.33-9.274-20.546-20.674-20.546-11.399 0-20.673 9.217-20.674 20.546 0 11.328 9.275 20.545 20.674 20.545zM16.858 92.757a6.44 6.44 0 0 0-5.29.505 6.364 6.364 0 0 0-3.085 4.3 6.332 6.332 0 0 0 1.243 5.135l4.672 5.933c1.628 2.067 4.58 2.636 6.866 1.323 2.287-1.312 3.268-4.137 2.28-6.57l-2.834-6.988a6.387 6.387 0 0 0-3.852-3.638zm42.324-15.805v2.63c1.907.84 3.241 2.738 3.241 4.941v3.061a6.506 6.506 0 0 0 4.28-2.212 6.43 6.43 0 0 0 1.501-5.178c-1.248-8.25-6.783-15.066-14.554-18.038a25.006 25.006 0 0 1-14.647 4.715 25.006 25.006 0 0 1-14.647-4.715c-7.77 2.972-13.305 9.789-14.554 18.038a6.43 6.43 0 0 0 1.502 5.178 6.506 6.506 0 0 0 4.28 2.212v-3.061c0-2.209 1.34-4.11 3.255-4.947v-2.624c0-1.197.976-2.168 2.181-2.168s2.182.97 2.182 2.168v2.168h31.617v-2.168c0-1.197.977-2.168 2.182-2.168s2.181.97 2.181 2.168zm10.342 20.61a6.364 6.364 0 0 0-3.085-4.3 6.433 6.433 0 0 0-5.29-.505 6.386 6.386 0 0 0-3.853 3.638l-2.834 6.986c-.987 2.435-.007 5.26 2.28 6.572 2.288 1.312 5.24.743 6.867-1.323l4.671-5.933a6.333 6.333 0 0 0 1.244-5.134zM50.94 91.262a2.177 2.177 0 0 1-2.181 2.168 2.173 2.173 0 0 1-2.181-2.168c0-.57.233-1.13.639-1.533a2.205 2.205 0 0 1 1.542-.636 2.177 2.177 0 0 1 2.181 2.168zM45.34 52.443a8.143 8.143 0 0 1-6.336 3.004 8.142 8.142 0 0 1-6.335-3.004 2.159 2.159 0 0 1 .32-3.05 2.191 2.191 0 0 1 3.07.32 3.787 3.787 0 0 0 2.945 1.398c1.148 0 2.221-.51 2.946-1.399a2.191 2.191 0 0 1 3.069-.319c.936.754 1.08 2.12.32 3.05zm-11.848-8.92a2.182 2.182 0 0 1-1.543.634 2.182 2.182 0 0 1-1.542-.634.717.717 0 0 0-1.008 0 2.191 2.191 0 0 1-3.085 0 2.158 2.158 0 0 1 0-3.067 5.104 5.104 0 0 1 7.178 0c.852.847.852 2.22 0 3.067zm18.203 0a2.19 2.19 0 0 1-3.085 0 .717.717 0 0 0-1.008 0 2.182 2.182 0 0 1-1.543.634 2.18 2.18 0 0 1-1.542-.635 2.159 2.159 0 0 1 0-3.066 5.105 5.105 0 0 1 7.178 0c.852.847.852 2.22 0 3.066z"/></mask><filter id="xjnfa" width="100" height="141" x="-11" y="-11" filterUnits="userSpaceOnUse"><feOffset in="SourceGraphic" result="FeOffset1123Out"/><feGaussianBlur in="FeOffset1123Out" result="FeGaussianBlur1124Out" stdDeviation="2 2"/></filter></defs><g><g><g filter="url(#xjnfa)"><path fill="none" d="M49.4 110.725c-1.047 2.597-3.564 4.275-6.412 4.275h-7.97c-2.848 0-5.365-1.678-6.412-4.275a2.164 2.164 0 0 1 1.213-2.82 2.187 2.187 0 0 1 2.836 1.207c.375.928 1.325 1.552 2.364 1.552h7.969c1.039 0 1.989-.624 2.363-1.552a2.186 2.186 0 0 1 2.837-1.206 2.164 2.164 0 0 1 1.213 2.819zm22.316-5.356l-4.671 5.933c-1.888 2.396-4.755 3.686-7.663 3.686a9.67 9.67 0 0 1-4.821-1.28c-4.159-2.386-5.94-7.522-4.145-11.948l2.834-6.986a10.72 10.72 0 0 1 4.81-5.381v-4.87c0-.589-.482-1.067-1.074-1.067H21.021c-.593 0-1.074.478-1.074 1.067v4.57h20.147c1.205 0 2.182.971 2.182 2.168a2.175 2.175 0 0 1-2.182 2.168h-16c.25.43.473.878.663 1.345l2.834 6.987c1.795 4.425.013 9.561-4.145 11.947a9.67 9.67 0 0 1-4.821 1.28c-2.909 0-5.776-1.29-7.663-3.686l-4.672-5.933a10.646 10.646 0 0 1-2.09-8.632 10.697 10.697 0 0 1 5.165-7.216 10.743 10.743 0 0 1-3.877-9.971 27.216 27.216 0 0 1 6.262-13.664 27.546 27.546 0 0 1 8.992-6.895c-4.2-4.452-6.775-10.433-6.775-17.002 0-13.51 10.892-24.54 24.408-24.873.052-.004.104-.008.158-.008a5.129 5.129 0 0 0 3.639-1.498 5.064 5.064 0 0 0 1.507-3.617c0-2.017-1.651-3.657-3.68-3.657h-.001c-.763 0-1.442.216-1.91.608a1.601 1.601 0 0 0-.598 1.278 2.175 2.175 0 0 1-2.182 2.168 2.175 2.175 0 0 1-2.181-2.168c0-1.801.763-3.432 2.15-4.593 1.253-1.05 2.93-1.63 4.72-1.63h.001c4.436 0 8.044 3.587 8.044 7.995 0 2.24-.78 4.359-2.21 6.055C56.33 21.01 64.04 30.622 64.04 41.989c0 6.57-2.576 12.55-6.775 17.002a27.539 27.539 0 0 1 8.991 6.895A27.213 27.213 0 0 1 72.52 79.55a10.741 10.741 0 0 1-3.877 9.972 10.699 10.699 0 0 1 5.165 7.216 10.645 10.645 0 0 1-2.09 8.632zM39.003 62.535c11.4 0 20.674-9.217 20.674-20.545 0-11.33-9.274-20.546-20.674-20.546-11.399 0-20.673 9.217-20.674 20.546 0 11.328 9.275 20.545 20.674 20.545zM16.858 92.757a6.44 6.44 0 0 0-5.29.505 6.364 6.364 0 0 0-3.085 4.3 6.332 6.332 0 0 0 1.243 5.135l4.672 5.933c1.628 2.067 4.58 2.636 6.866 1.323 2.287-1.312 3.268-4.137 2.28-6.57l-2.834-6.988a6.387 6.387 0 0 0-3.852-3.638zm42.324-15.805v2.63c1.907.84 3.241 2.738 3.241 4.941v3.061a6.506 6.506 0 0 0 4.28-2.212 6.43 6.43 0 0 0 1.501-5.178c-1.248-8.25-6.783-15.066-14.554-18.038a25.006 25.006 0 0 1-14.647 4.715 25.006 25.006 0 0 1-14.647-4.715c-7.77 2.972-13.305 9.789-14.554 18.038a6.43 6.43 0 0 0 1.502 5.178 6.506 6.506 0 0 0 4.28 2.212v-3.061c0-2.209 1.34-4.11 3.255-4.947v-2.624c0-1.197.976-2.168 2.181-2.168s2.182.97 2.182 2.168v2.168h31.617v-2.168c0-1.197.977-2.168 2.182-2.168s2.181.97 2.181 2.168zm10.342 20.61a6.364 6.364 0 0 0-3.085-4.3 6.433 6.433 0 0 0-5.29-.505 6.386 6.386 0 0 0-3.853 3.638l-2.834 6.986c-.987 2.435-.007 5.26 2.28 6.572 2.288 1.312 5.24.743 6.867-1.323l4.671-5.933a6.333 6.333 0 0 0 1.244-5.134zM50.94 91.262a2.177 2.177 0 0 1-2.181 2.168 2.173 2.173 0 0 1-2.181-2.168c0-.57.233-1.13.639-1.533a2.205 2.205 0 0 1 1.542-.636 2.177 2.177 0 0 1 2.181 2.168zM45.34 52.443a8.143 8.143 0 0 1-6.336 3.004 8.142 8.142 0 0 1-6.335-3.004 2.159 2.159 0 0 1 .32-3.05 2.191 2.191 0 0 1 3.07.32 3.787 3.787 0 0 0 2.945 1.398c1.148 0 2.221-.51 2.946-1.399a2.191 2.191 0 0 1 3.069-.319c.936.754 1.08 2.12.32 3.05zm-11.848-8.92a2.182 2.182 0 0 1-1.543.634 2.182 2.182 0 0 1-1.542-.634.717.717 0 0 0-1.008 0 2.191 2.191 0 0 1-3.085 0 2.158 2.158 0 0 1 0-3.067 5.104 5.104 0 0 1 7.178 0c.852.847.852 2.22 0 3.067zm18.203 0a2.19 2.19 0 0 1-3.085 0 .717.717 0 0 0-1.008 0 2.182 2.182 0 0 1-1.543.634 2.18 2.18 0 0 1-1.542-.635 2.159 2.159 0 0 1 0-3.066 5.105 5.105 0 0 1 7.178 0c.852.847.852 2.22 0 3.066z" mask="url(&quot;#xjnfb&quot;)"/><path fill="#005ecf" fill-opacity=".75" d="M49.4 110.725c-1.047 2.597-3.564 4.275-6.412 4.275h-7.97c-2.848 0-5.365-1.678-6.412-4.275a2.164 2.164 0 0 1 1.213-2.82 2.187 2.187 0 0 1 2.836 1.207c.375.928 1.325 1.552 2.364 1.552h7.969c1.039 0 1.989-.624 2.363-1.552a2.186 2.186 0 0 1 2.837-1.206 2.164 2.164 0 0 1 1.213 2.819zm22.316-5.356l-4.671 5.933c-1.888 2.396-4.755 3.686-7.663 3.686a9.67 9.67 0 0 1-4.821-1.28c-4.159-2.386-5.94-7.522-4.145-11.948l2.834-6.986a10.72 10.72 0 0 1 4.81-5.381v-4.87c0-.589-.482-1.067-1.074-1.067H21.021c-.593 0-1.074.478-1.074 1.067v4.57h20.147c1.205 0 2.182.971 2.182 2.168a2.175 2.175 0 0 1-2.182 2.168h-16c.25.43.473.878.663 1.345l2.834 6.987c1.795 4.425.013 9.561-4.145 11.947a9.67 9.67 0 0 1-4.821 1.28c-2.909 0-5.776-1.29-7.663-3.686l-4.672-5.933a10.646 10.646 0 0 1-2.09-8.632 10.697 10.697 0 0 1 5.165-7.216 10.743 10.743 0 0 1-3.877-9.971 27.216 27.216 0 0 1 6.262-13.664 27.546 27.546 0 0 1 8.992-6.895c-4.2-4.452-6.775-10.433-6.775-17.002 0-13.51 10.892-24.54 24.408-24.873.052-.004.104-.008.158-.008a5.129 5.129 0 0 0 3.639-1.498 5.064 5.064 0 0 0 1.507-3.617c0-2.017-1.651-3.657-3.68-3.657h-.001c-.763 0-1.442.216-1.91.608a1.601 1.601 0 0 0-.598 1.278 2.175 2.175 0 0 1-2.182 2.168 2.175 2.175 0 0 1-2.181-2.168c0-1.801.763-3.432 2.15-4.593 1.253-1.05 2.93-1.63 4.72-1.63h.001c4.436 0 8.044 3.587 8.044 7.995 0 2.24-.78 4.359-2.21 6.055C56.33 21.01 64.04 30.622 64.04 41.989c0 6.57-2.576 12.55-6.775 17.002a27.539 27.539 0 0 1 8.991 6.895A27.213 27.213 0 0 1 72.52 79.55a10.741 10.741 0 0 1-3.877 9.972 10.699 10.699 0 0 1 5.165 7.216 10.645 10.645 0 0 1-2.09 8.632zM39.003 62.535c11.4 0 20.674-9.217 20.674-20.545 0-11.33-9.274-20.546-20.674-20.546-11.399 0-20.673 9.217-20.674 20.546 0 11.328 9.275 20.545 20.674 20.545zM16.858 92.757a6.44 6.44 0 0 0-5.29.505 6.364 6.364 0 0 0-3.085 4.3 6.332 6.332 0 0 0 1.243 5.135l4.672 5.933c1.628 2.067 4.58 2.636 6.866 1.323 2.287-1.312 3.268-4.137 2.28-6.57l-2.834-6.988a6.387 6.387 0 0 0-3.852-3.638zm42.324-15.805v2.63c1.907.84 3.241 2.738 3.241 4.941v3.061a6.506 6.506 0 0 0 4.28-2.212 6.43 6.43 0 0 0 1.501-5.178c-1.248-8.25-6.783-15.066-14.554-18.038a25.006 25.006 0 0 1-14.647 4.715 25.006 25.006 0 0 1-14.647-4.715c-7.77 2.972-13.305 9.789-14.554 18.038a6.43 6.43 0 0 0 1.502 5.178 6.506 6.506 0 0 0 4.28 2.212v-3.061c0-2.209 1.34-4.11 3.255-4.947v-2.624c0-1.197.976-2.168 2.181-2.168s2.182.97 2.182 2.168v2.168h31.617v-2.168c0-1.197.977-2.168 2.182-2.168s2.181.97 2.181 2.168zm10.342 20.61a6.364 6.364 0 0 0-3.085-4.3 6.433 6.433 0 0 0-5.29-.505 6.386 6.386 0 0 0-3.853 3.638l-2.834 6.986c-.987 2.435-.007 5.26 2.28 6.572 2.288 1.312 5.24.743 6.867-1.323l4.671-5.933a6.333 6.333 0 0 0 1.244-5.134zM50.94 91.262a2.177 2.177 0 0 1-2.181 2.168 2.173 2.173 0 0 1-2.181-2.168c0-.57.233-1.13.639-1.533a2.205 2.205 0 0 1 1.542-.636 2.177 2.177 0 0 1 2.181 2.168zM45.34 52.443a8.143 8.143 0 0 1-6.336 3.004 8.142 8.142 0 0 1-6.335-3.004 2.159 2.159 0 0 1 .32-3.05 2.191 2.191 0 0 1 3.07.32 3.787 3.787 0 0 0 2.945 1.398c1.148 0 2.221-.51 2.946-1.399a2.191 2.191 0 0 1 3.069-.319c.936.754 1.08 2.12.32 3.05zm-11.848-8.92a2.182 2.182 0 0 1-1.543.634 2.182 2.182 0 0 1-1.542-.634.717.717 0 0 0-1.008 0 2.191 2.191 0 0 1-3.085 0 2.158 2.158 0 0 1 0-3.067 5.104 5.104 0 0 1 7.178 0c.852.847.852 2.22 0 3.067zm18.203 0a2.19 2.19 0 0 1-3.085 0 .717.717 0 0 0-1.008 0 2.182 2.182 0 0 1-1.543.634 2.18 2.18 0 0 1-1.542-.635 2.159 2.159 0 0 1 0-3.066 5.105 5.105 0 0 1 7.178 0c.852.847.852 2.22 0 3.066z"/></g><path fill="#fff" d="M49.4 110.725c-1.047 2.597-3.564 4.275-6.412 4.275h-7.97c-2.848 0-5.365-1.678-6.412-4.275a2.164 2.164 0 0 1 1.213-2.82 2.187 2.187 0 0 1 2.836 1.207c.375.928 1.325 1.552 2.364 1.552h7.969c1.039 0 1.989-.624 2.363-1.552a2.186 2.186 0 0 1 2.837-1.206 2.164 2.164 0 0 1 1.213 2.819zm22.316-5.356l-4.671 5.933c-1.888 2.396-4.755 3.686-7.663 3.686a9.67 9.67 0 0 1-4.821-1.28c-4.159-2.386-5.94-7.522-4.145-11.948l2.834-6.986a10.72 10.72 0 0 1 4.81-5.381v-4.87c0-.589-.482-1.067-1.074-1.067H21.021c-.593 0-1.074.478-1.074 1.067v4.57h20.147c1.205 0 2.182.971 2.182 2.168a2.175 2.175 0 0 1-2.182 2.168h-16c.25.43.473.878.663 1.345l2.834 6.987c1.795 4.425.013 9.561-4.145 11.947a9.67 9.67 0 0 1-4.821 1.28c-2.909 0-5.776-1.29-7.663-3.686l-4.672-5.933a10.646 10.646 0 0 1-2.09-8.632 10.697 10.697 0 0 1 5.165-7.216 10.743 10.743 0 0 1-3.877-9.971 27.216 27.216 0 0 1 6.262-13.664 27.546 27.546 0 0 1 8.992-6.895c-4.2-4.452-6.775-10.433-6.775-17.002 0-13.51 10.892-24.54 24.408-24.873.052-.004.104-.008.158-.008a5.129 5.129 0 0 0 3.639-1.498 5.064 5.064 0 0 0 1.507-3.617c0-2.017-1.651-3.657-3.68-3.657h-.001c-.763 0-1.442.216-1.91.608a1.601 1.601 0 0 0-.598 1.278 2.175 2.175 0 0 1-2.182 2.168 2.175 2.175 0 0 1-2.181-2.168c0-1.801.763-3.432 2.15-4.593 1.253-1.05 2.93-1.63 4.72-1.63h.001c4.436 0 8.044 3.587 8.044 7.995 0 2.24-.78 4.359-2.21 6.055C56.33 21.01 64.04 30.622 64.04 41.989c0 6.57-2.576 12.55-6.775 17.002a27.539 27.539 0 0 1 8.991 6.895A27.213 27.213 0 0 1 72.52 79.55a10.741 10.741 0 0 1-3.877 9.972 10.699 10.699 0 0 1 5.165 7.216 10.645 10.645 0 0 1-2.09 8.632zM39.003 62.535c11.4 0 20.674-9.217 20.674-20.545 0-11.33-9.274-20.546-20.674-20.546-11.399 0-20.673 9.217-20.674 20.546 0 11.328 9.275 20.545 20.674 20.545zM16.858 92.757a6.44 6.44 0 0 0-5.29.505 6.364 6.364 0 0 0-3.085 4.3 6.332 6.332 0 0 0 1.243 5.135l4.672 5.933c1.628 2.067 4.58 2.636 6.866 1.323 2.287-1.312 3.268-4.137 2.28-6.57l-2.834-6.988a6.387 6.387 0 0 0-3.852-3.638zm42.324-15.805v2.63c1.907.84 3.241 2.738 3.241 4.941v3.061a6.506 6.506 0 0 0 4.28-2.212 6.43 6.43 0 0 0 1.501-5.178c-1.248-8.25-6.783-15.066-14.554-18.038a25.006 25.006 0 0 1-14.647 4.715 25.006 25.006 0 0 1-14.647-4.715c-7.77 2.972-13.305 9.789-14.554 18.038a6.43 6.43 0 0 0 1.502 5.178 6.506 6.506 0 0 0 4.28 2.212v-3.061c0-2.209 1.34-4.11 3.255-4.947v-2.624c0-1.197.976-2.168 2.181-2.168s2.182.97 2.182 2.168v2.168h31.617v-2.168c0-1.197.977-2.168 2.182-2.168s2.181.97 2.181 2.168zm10.342 20.61a6.364 6.364 0 0 0-3.085-4.3 6.433 6.433 0 0 0-5.29-.505 6.386 6.386 0 0 0-3.853 3.638l-2.834 6.986c-.987 2.435-.007 5.26 2.28 6.572 2.288 1.312 5.24.743 6.867-1.323l4.671-5.933a6.333 6.333 0 0 0 1.244-5.134zM50.94 91.262a2.177 2.177 0 0 1-2.181 2.168 2.173 2.173 0 0 1-2.181-2.168c0-.57.233-1.13.639-1.533a2.205 2.205 0 0 1 1.542-.636 2.177 2.177 0 0 1 2.181 2.168zM45.34 52.443a8.143 8.143 0 0 1-6.336 3.004 8.142 8.142 0 0 1-6.335-3.004 2.159 2.159 0 0 1 .32-3.05 2.191 2.191 0 0 1 3.07.32 3.787 3.787 0 0 0 2.945 1.398c1.148 0 2.221-.51 2.946-1.399a2.191 2.191 0 0 1 3.069-.319c.936.754 1.08 2.12.32 3.05zm-11.848-8.92a2.182 2.182 0 0 1-1.543.634 2.182 2.182 0 0 1-1.542-.634.717.717 0 0 0-1.008 0 2.191 2.191 0 0 1-3.085 0 2.158 2.158 0 0 1 0-3.067 5.104 5.104 0 0 1 7.178 0c.852.847.852 2.22 0 3.067zm18.203 0a2.19 2.19 0 0 1-3.085 0 .717.717 0 0 0-1.008 0 2.182 2.182 0 0 1-1.543.634 2.18 2.18 0 0 1-1.542-.635 2.159 2.159 0 0 1 0-3.066 5.105 5.105 0 0 1 7.178 0c.852.847.852 2.22 0 3.066z"/></g></g></svg>