<svg xmlns="http://www.w3.org/2000/svg" width="110" height="106" viewBox="0 0 110 106"><defs><mask id="huo1b" width="2" height="2" x="-1" y="-1"><path fill="#fff" d="M4 4h102v98H4z"/><path d="M30 25.209v-4.341h4.567v4.34zm19.63 0h-4.567v-4.341h4.568zM106 70.275l-7.45 8.631-1.35-.002v15.575c0 4.148-3.368 7.522-7.507 7.522H16.785v-8.025c0-4.424 3.593-8.023 8.01-8.023h9.28l2.15-33.094 4.324.282-2.414 37.153H24.794a3.684 3.684 0 0 0-3.676 3.682v3.684h25.009v-3.684a8.02 8.02 0 0 1 3.116-6.348l1.2-17.02 11.797-9.266 2.673 3.417-10.283 8.076-.926 13.129c.143-.008.287-.012.432-.012H65.1c1.044-6.625 6.782-11.708 13.683-11.708v4.341c-5.25 0-9.52 4.279-9.52 9.538v2.17H54.137a3.684 3.684 0 0 0-3.676 3.683v3.684h39.233a3.181 3.181 0 0 0 3.174-3.18V77.574l-32.13-34.113H58.36v-4.34h4.245L95.985 74.56l.587.001 4.882-5.656-2.326-17.974h-1.593l-.02 12.569-3.991 4.134-3.114-3.019 2.775-2.874.024-15.153 9.727.004zM18.195 28.77c-1.145 0-2.237-.533-2.997-1.462L5.029 14.879c-1.372-1.679-1.372-4.307 0-5.985l4.004-4.895h18.325l4.004 4.895c.183.223.342.464.476.718h15.954c.134-.253.293-.494.476-.718l4.004-4.895h18.325L74.6 8.894c1.373 1.678 1.372 4.307 0 5.985l-10.168 12.43c-.76.93-1.853 1.462-2.998 1.462-1.146 0-2.239-.532-2.998-1.461l-.95-1.161-2.568 16.513c-.592 3.808-3.374 6.468-6.764 6.468H31.476c-3.39 0-6.172-2.66-6.764-6.468l-2.569-16.513-.949 1.16c-.76.929-1.853 1.462-2.999 1.462zM51.62 12.127l9.814 11.999 9.815-11.999c.074-.095.074-.387 0-.482L68.546 8.34H54.323l-2.703 3.305c-.074.095-.074.388 0 .482zM31.362 14.88l-5.535 6.765 3.165 20.35c.2 1.289.972 2.795 2.484 2.795h6.173v-7.366h-3.3v-4.341h10.932v4.34h-3.3v7.367h6.173c1.512 0 2.283-1.506 2.483-2.796l3.165-20.349-5.534-6.765a4.396 4.396 0 0 1-.58-.926H31.942c-.153.33-.346.641-.58.926zm-13.166 9.246l9.815-11.998c.074-.095.074-.387 0-.482L25.307 8.34H11.084l-2.703 3.305c-.074.095-.074.387 0 .482z"/></mask><filter id="huo1a" width="132" height="128" x="-11" y="-11" filterUnits="userSpaceOnUse"><feOffset in="SourceGraphic" result="FeOffset1143Out"/><feGaussianBlur in="FeOffset1143Out" result="FeGaussianBlur1144Out" stdDeviation="2 2"/></filter></defs><g><g><g filter="url(#huo1a)"><path fill="none" d="M30 25.209v-4.341h4.567v4.34zm19.63 0h-4.567v-4.341h4.568zM106 70.275l-7.45 8.631-1.35-.002v15.575c0 4.148-3.368 7.522-7.507 7.522H16.785v-8.025c0-4.424 3.593-8.023 8.01-8.023h9.28l2.15-33.094 4.324.282-2.414 37.153H24.794a3.684 3.684 0 0 0-3.676 3.682v3.684h25.009v-3.684a8.02 8.02 0 0 1 3.116-6.348l1.2-17.02 11.797-9.266 2.673 3.417-10.283 8.076-.926 13.129c.143-.008.287-.012.432-.012H65.1c1.044-6.625 6.782-11.708 13.683-11.708v4.341c-5.25 0-9.52 4.279-9.52 9.538v2.17H54.137a3.684 3.684 0 0 0-3.676 3.683v3.684h39.233a3.181 3.181 0 0 0 3.174-3.18V77.574l-32.13-34.113H58.36v-4.34h4.245L95.985 74.56l.587.001 4.882-5.656-2.326-17.974h-1.593l-.02 12.569-3.991 4.134-3.114-3.019 2.775-2.874.024-15.153 9.727.004zM18.195 28.77c-1.145 0-2.237-.533-2.997-1.462L5.029 14.879c-1.372-1.679-1.372-4.307 0-5.985l4.004-4.895h18.325l4.004 4.895c.183.223.342.464.476.718h15.954c.134-.253.293-.494.476-.718l4.004-4.895h18.325L74.6 8.894c1.373 1.678 1.372 4.307 0 5.985l-10.168 12.43c-.76.93-1.853 1.462-2.998 1.462-1.146 0-2.239-.532-2.998-1.461l-.95-1.161-2.568 16.513c-.592 3.808-3.374 6.468-6.764 6.468H31.476c-3.39 0-6.172-2.66-6.764-6.468l-2.569-16.513-.949 1.16c-.76.929-1.853 1.462-2.999 1.462zM51.62 12.127l9.814 11.999 9.815-11.999c.074-.095.074-.387 0-.482L68.546 8.34H54.323l-2.703 3.305c-.074.095-.074.388 0 .482zM31.362 14.88l-5.535 6.765 3.165 20.35c.2 1.289.972 2.795 2.484 2.795h6.173v-7.366h-3.3v-4.341h10.932v4.34h-3.3v7.367h6.173c1.512 0 2.283-1.506 2.483-2.796l3.165-20.349-5.534-6.765a4.396 4.396 0 0 1-.58-.926H31.942c-.153.33-.346.641-.58.926zm-13.166 9.246l9.815-11.998c.074-.095.074-.387 0-.482L25.307 8.34H11.084l-2.703 3.305c-.074.095-.074.387 0 .482z" mask="url(&quot;#huo1b&quot;)"/><path fill="#005ecf" fill-opacity=".75" d="M30 25.209v-4.341h4.567v4.34zm19.63 0h-4.567v-4.341h4.568zM106 70.275l-7.45 8.631-1.35-.002v15.575c0 4.148-3.368 7.522-7.507 7.522H16.785v-8.025c0-4.424 3.593-8.023 8.01-8.023h9.28l2.15-33.094 4.324.282-2.414 37.153H24.794a3.684 3.684 0 0 0-3.676 3.682v3.684h25.009v-3.684a8.02 8.02 0 0 1 3.116-6.348l1.2-17.02 11.797-9.266 2.673 3.417-10.283 8.076-.926 13.129c.143-.008.287-.012.432-.012H65.1c1.044-6.625 6.782-11.708 13.683-11.708v4.341c-5.25 0-9.52 4.279-9.52 9.538v2.17H54.137a3.684 3.684 0 0 0-3.676 3.683v3.684h39.233a3.181 3.181 0 0 0 3.174-3.18V77.574l-32.13-34.113H58.36v-4.34h4.245L95.985 74.56l.587.001 4.882-5.656-2.326-17.974h-1.593l-.02 12.569-3.991 4.134-3.114-3.019 2.775-2.874.024-15.153 9.727.004zM18.195 28.77c-1.145 0-2.237-.533-2.997-1.462L5.029 14.879c-1.372-1.679-1.372-4.307 0-5.985l4.004-4.895h18.325l4.004 4.895c.183.223.342.464.476.718h15.954c.134-.253.293-.494.476-.718l4.004-4.895h18.325L74.6 8.894c1.373 1.678 1.372 4.307 0 5.985l-10.168 12.43c-.76.93-1.853 1.462-2.998 1.462-1.146 0-2.239-.532-2.998-1.461l-.95-1.161-2.568 16.513c-.592 3.808-3.374 6.468-6.764 6.468H31.476c-3.39 0-6.172-2.66-6.764-6.468l-2.569-16.513-.949 1.16c-.76.929-1.853 1.462-2.999 1.462zM51.62 12.127l9.814 11.999 9.815-11.999c.074-.095.074-.387 0-.482L68.546 8.34H54.323l-2.703 3.305c-.074.095-.074.388 0 .482zM31.362 14.88l-5.535 6.765 3.165 20.35c.2 1.289.972 2.795 2.484 2.795h6.173v-7.366h-3.3v-4.341h10.932v4.34h-3.3v7.367h6.173c1.512 0 2.283-1.506 2.483-2.796l3.165-20.349-5.534-6.765a4.396 4.396 0 0 1-.58-.926H31.942c-.153.33-.346.641-.58.926zm-13.166 9.246l9.815-11.998c.074-.095.074-.387 0-.482L25.307 8.34H11.084l-2.703 3.305c-.074.095-.074.387 0 .482z"/></g><path fill="#fff" d="M30 25.209v-4.341h4.567v4.34zm19.63 0h-4.567v-4.341h4.568zM106 70.275l-7.45 8.631-1.35-.002v15.575c0 4.148-3.368 7.522-7.507 7.522H16.785v-8.025c0-4.424 3.593-8.023 8.01-8.023h9.28l2.15-33.094 4.324.282-2.414 37.153H24.794a3.684 3.684 0 0 0-3.676 3.682v3.684h25.009v-3.684a8.02 8.02 0 0 1 3.116-6.348l1.2-17.02 11.797-9.266 2.673 3.417-10.283 8.076-.926 13.129c.143-.008.287-.012.432-.012H65.1c1.044-6.625 6.782-11.708 13.683-11.708v4.341c-5.25 0-9.52 4.279-9.52 9.538v2.17H54.137a3.684 3.684 0 0 0-3.676 3.683v3.684h39.233a3.181 3.181 0 0 0 3.174-3.18V77.574l-32.13-34.113H58.36v-4.34h4.245L95.985 74.56l.587.001 4.882-5.656-2.326-17.974h-1.593l-.02 12.569-3.991 4.134-3.114-3.019 2.775-2.874.024-15.153 9.727.004zM18.195 28.77c-1.145 0-2.237-.533-2.997-1.462L5.029 14.879c-1.372-1.679-1.372-4.307 0-5.985l4.004-4.895h18.325l4.004 4.895c.183.223.342.464.476.718h15.954c.134-.253.293-.494.476-.718l4.004-4.895h18.325L74.6 8.894c1.373 1.678 1.372 4.307 0 5.985l-10.168 12.43c-.76.93-1.853 1.462-2.998 1.462-1.146 0-2.239-.532-2.998-1.461l-.95-1.161-2.568 16.513c-.592 3.808-3.374 6.468-6.764 6.468H31.476c-3.39 0-6.172-2.66-6.764-6.468l-2.569-16.513-.949 1.16c-.76.929-1.853 1.462-2.999 1.462zM51.62 12.127l9.814 11.999 9.815-11.999c.074-.095.074-.387 0-.482L68.546 8.34H54.323l-2.703 3.305c-.074.095-.074.388 0 .482zM31.362 14.88l-5.535 6.765 3.165 20.35c.2 1.289.972 2.795 2.484 2.795h6.173v-7.366h-3.3v-4.341h10.932v4.34h-3.3v7.367h6.173c1.512 0 2.283-1.506 2.483-2.796l3.165-20.349-5.534-6.765a4.396 4.396 0 0 1-.58-.926H31.942c-.153.33-.346.641-.58.926zm-13.166 9.246l9.815-11.998c.074-.095.074-.387 0-.482L25.307 8.34H11.084l-2.703 3.305c-.074.095-.074.387 0 .482z"/></g></g></svg>