<svg xmlns="http://www.w3.org/2000/svg" width="84" height="124" viewBox="0 0 84 124"><defs><mask id="trqmb" width="2" height="2" x="-1" y="-1"><path fill="#fff" d="M4 4h76v116H4z"/><path d="M73.915 112.828l-1.468 5.145c-.294 1.028-1.172 1.52-2.196 1.227-1.024-.292-1.511-1.173-1.218-2.202l1.21-4.242L56.89 96.595l6.407 11.587c.422.424.573 1.04.378 1.723l-1.468 5.145c-.294 1.03-1.172 1.52-2.196 1.228-1.024-.292-1.511-1.173-1.218-2.202l1.272-4.459-9.537-17.248 2.98 13.708c.133.502.041.986-.21 1.378l-1.332 4.673c-.294 1.028-1.172 1.52-2.197 1.227-1.024-.292-1.51-1.173-1.217-2.201l1.314-4.606-3.99-18.36-4.39 15.386-1.469 5.144c-.293 1.03-1.172 1.52-2.196 1.228-1.024-.292-1.51-1.173-1.217-2.202l1.468-5.144 4.39-15.385-13.078 13.488-1.315 4.606c-.293 1.03-1.172 1.52-2.196 1.228-1.024-.292-1.51-1.173-1.217-2.202l1.333-4.673a1.707 1.707 0 0 1 .55-1.28l9.765-10.072-17.204 9.618-1.272 4.46c-.294 1.028-1.172 1.519-2.196 1.227-1.024-.292-1.511-1.173-1.218-2.202l1.468-5.145c.195-.683.649-1.127 1.23-1.264l10.862-6.072-19.226 6.462-1.161 4.07c-.294 1.03-1.172 1.52-2.197 1.228-1.024-.292-1.51-1.173-1.217-2.202l1.468-5.144c.251-.882.933-1.367 1.767-1.304l33.166-11.148 2.403-8.421.978-3.43L55.348 29.11c-4.548-2.873-6.816-8.457-5.248-13.95l2.446-8.574 5.12 1.461.98-3.43 17.068 4.87-.978 3.43 5.12 1.461-2.446 8.575c-1.568 5.493-6.441 9.039-11.82 9.08l-11.395 39.93-.978 3.43-2.354 8.25 22.64 27.397c.07.075.129.154.183.235.306.41.4.956.229 1.552zM61.08 9.022l-.978 3.43 10.241 2.922.979-3.43zm-3.868 17.052l1.072.51c.212.145.433.253.644.338.22.081.443.157.673.223l3.414.974c.276.079.553.143.83.195.176.023.363.033.584.023l1.18.133c3.83-.042 7.266-2.563 8.387-6.49l1.468-5.145-1.707-.487-.979 3.43-17.069-4.87.979-3.43-1.707-.488-1.468 5.145c-1.12 3.927.468 7.882 3.699 9.939zm-9.844 43.943l3.414.974L62.036 31.55l-3.414-.974zm-.979 3.43l-1.733 6.074.08-.027c.05-.058.103-.114.16-.168.722-.679 1.732-.598 2.437.069.103.093.197.199.28.316l.506.613 1.684-5.903z"/></mask><filter id="trqma" width="106" height="146" x="-11" y="-11" filterUnits="userSpaceOnUse"><feOffset in="SourceGraphic" result="FeOffset1163Out"/><feGaussianBlur in="FeOffset1163Out" result="FeGaussianBlur1164Out" stdDeviation="2 2"/></filter></defs><g><g><g filter="url(#trqma)"><path fill="none" d="M73.915 112.828l-1.468 5.145c-.294 1.028-1.172 1.52-2.196 1.227-1.024-.292-1.511-1.173-1.218-2.202l1.21-4.242L56.89 96.595l6.407 11.587c.422.424.573 1.04.378 1.723l-1.468 5.145c-.294 1.03-1.172 1.52-2.196 1.228-1.024-.292-1.511-1.173-1.218-2.202l1.272-4.459-9.537-17.248 2.98 13.708c.133.502.041.986-.21 1.378l-1.332 4.673c-.294 1.028-1.172 1.52-2.197 1.227-1.024-.292-1.51-1.173-1.217-2.201l1.314-4.606-3.99-18.36-4.39 15.386-1.469 5.144c-.293 1.03-1.172 1.52-2.196 1.228-1.024-.292-1.51-1.173-1.217-2.202l1.468-5.144 4.39-15.385-13.078 13.488-1.315 4.606c-.293 1.03-1.172 1.52-2.196 1.228-1.024-.292-1.51-1.173-1.217-2.202l1.333-4.673a1.707 1.707 0 0 1 .55-1.28l9.765-10.072-17.204 9.618-1.272 4.46c-.294 1.028-1.172 1.519-2.196 1.227-1.024-.292-1.511-1.173-1.218-2.202l1.468-5.145c.195-.683.649-1.127 1.23-1.264l10.862-6.072-19.226 6.462-1.161 4.07c-.294 1.03-1.172 1.52-2.197 1.228-1.024-.292-1.51-1.173-1.217-2.202l1.468-5.144c.251-.882.933-1.367 1.767-1.304l33.166-11.148 2.403-8.421.978-3.43L55.348 29.11c-4.548-2.873-6.816-8.457-5.248-13.95l2.446-8.574 5.12 1.461.98-3.43 17.068 4.87-.978 3.43 5.12 1.461-2.446 8.575c-1.568 5.493-6.441 9.039-11.82 9.08l-11.395 39.93-.978 3.43-2.354 8.25 22.64 27.397c.07.075.129.154.183.235.306.41.4.956.229 1.552zM61.08 9.022l-.978 3.43 10.241 2.922.979-3.43zm-3.868 17.052l1.072.51c.212.145.433.253.644.338.22.081.443.157.673.223l3.414.974c.276.079.553.143.83.195.176.023.363.033.584.023l1.18.133c3.83-.042 7.266-2.563 8.387-6.49l1.468-5.145-1.707-.487-.979 3.43-17.069-4.87.979-3.43-1.707-.488-1.468 5.145c-1.12 3.927.468 7.882 3.699 9.939zm-9.844 43.943l3.414.974L62.036 31.55l-3.414-.974zm-.979 3.43l-1.733 6.074.08-.027c.05-.058.103-.114.16-.168.722-.679 1.732-.598 2.437.069.103.093.197.199.28.316l.506.613 1.684-5.903z" mask="url(&quot;#trqmb&quot;)"/><path fill="#005ecf" fill-opacity=".75" d="M73.915 112.828l-1.468 5.145c-.294 1.028-1.172 1.52-2.196 1.227-1.024-.292-1.511-1.173-1.218-2.202l1.21-4.242L56.89 96.595l6.407 11.587c.422.424.573 1.04.378 1.723l-1.468 5.145c-.294 1.03-1.172 1.52-2.196 1.228-1.024-.292-1.511-1.173-1.218-2.202l1.272-4.459-9.537-17.248 2.98 13.708c.133.502.041.986-.21 1.378l-1.332 4.673c-.294 1.028-1.172 1.52-2.197 1.227-1.024-.292-1.51-1.173-1.217-2.201l1.314-4.606-3.99-18.36-4.39 15.386-1.469 5.144c-.293 1.03-1.172 1.52-2.196 1.228-1.024-.292-1.51-1.173-1.217-2.202l1.468-5.144 4.39-15.385-13.078 13.488-1.315 4.606c-.293 1.03-1.172 1.52-2.196 1.228-1.024-.292-1.51-1.173-1.217-2.202l1.333-4.673a1.707 1.707 0 0 1 .55-1.28l9.765-10.072-17.204 9.618-1.272 4.46c-.294 1.028-1.172 1.519-2.196 1.227-1.024-.292-1.511-1.173-1.218-2.202l1.468-5.145c.195-.683.649-1.127 1.23-1.264l10.862-6.072-19.226 6.462-1.161 4.07c-.294 1.03-1.172 1.52-2.197 1.228-1.024-.292-1.51-1.173-1.217-2.202l1.468-5.144c.251-.882.933-1.367 1.767-1.304l33.166-11.148 2.403-8.421.978-3.43L55.348 29.11c-4.548-2.873-6.816-8.457-5.248-13.95l2.446-8.574 5.12 1.461.98-3.43 17.068 4.87-.978 3.43 5.12 1.461-2.446 8.575c-1.568 5.493-6.441 9.039-11.82 9.08l-11.395 39.93-.978 3.43-2.354 8.25 22.64 27.397c.07.075.129.154.183.235.306.41.4.956.229 1.552zM61.08 9.022l-.978 3.43 10.241 2.922.979-3.43zm-3.868 17.052l1.072.51c.212.145.433.253.644.338.22.081.443.157.673.223l3.414.974c.276.079.553.143.83.195.176.023.363.033.584.023l1.18.133c3.83-.042 7.266-2.563 8.387-6.49l1.468-5.145-1.707-.487-.979 3.43-17.069-4.87.979-3.43-1.707-.488-1.468 5.145c-1.12 3.927.468 7.882 3.699 9.939zm-9.844 43.943l3.414.974L62.036 31.55l-3.414-.974zm-.979 3.43l-1.733 6.074.08-.027c.05-.058.103-.114.16-.168.722-.679 1.732-.598 2.437.069.103.093.197.199.28.316l.506.613 1.684-5.903z"/></g><path fill="#fff" d="M73.915 112.828l-1.468 5.145c-.294 1.028-1.172 1.52-2.196 1.227-1.024-.292-1.511-1.173-1.218-2.202l1.21-4.242L56.89 96.595l6.407 11.587c.422.424.573 1.04.378 1.723l-1.468 5.145c-.294 1.03-1.172 1.52-2.196 1.228-1.024-.292-1.511-1.173-1.218-2.202l1.272-4.459-9.537-17.248 2.98 13.708c.133.502.041.986-.21 1.378l-1.332 4.673c-.294 1.028-1.172 1.52-2.197 1.227-1.024-.292-1.51-1.173-1.217-2.201l1.314-4.606-3.99-18.36-4.39 15.386-1.469 5.144c-.293 1.03-1.172 1.52-2.196 1.228-1.024-.292-1.51-1.173-1.217-2.202l1.468-5.144 4.39-15.385-13.078 13.488-1.315 4.606c-.293 1.03-1.172 1.52-2.196 1.228-1.024-.292-1.51-1.173-1.217-2.202l1.333-4.673a1.707 1.707 0 0 1 .55-1.28l9.765-10.072-17.204 9.618-1.272 4.46c-.294 1.028-1.172 1.519-2.196 1.227-1.024-.292-1.511-1.173-1.218-2.202l1.468-5.145c.195-.683.649-1.127 1.23-1.264l10.862-6.072-19.226 6.462-1.161 4.07c-.294 1.03-1.172 1.52-2.197 1.228-1.024-.292-1.51-1.173-1.217-2.202l1.468-5.144c.251-.882.933-1.367 1.767-1.304l33.166-11.148 2.403-8.421.978-3.43L55.348 29.11c-4.548-2.873-6.816-8.457-5.248-13.95l2.446-8.574 5.12 1.461.98-3.43 17.068 4.87-.978 3.43 5.12 1.461-2.446 8.575c-1.568 5.493-6.441 9.039-11.82 9.08l-11.395 39.93-.978 3.43-2.354 8.25 22.64 27.397c.07.075.129.154.183.235.306.41.4.956.229 1.552zM61.08 9.022l-.978 3.43 10.241 2.922.979-3.43zm-3.868 17.052l1.072.51c.212.145.433.253.644.338.22.081.443.157.673.223l3.414.974c.276.079.553.143.83.195.176.023.363.033.584.023l1.18.133c3.83-.042 7.266-2.563 8.387-6.49l1.468-5.145-1.707-.487-.979 3.43-17.069-4.87.979-3.43-1.707-.488-1.468 5.145c-1.12 3.927.468 7.882 3.699 9.939zm-9.844 43.943l3.414.974L62.036 31.55l-3.414-.974zm-.979 3.43l-1.733 6.074.08-.027c.05-.058.103-.114.16-.168.722-.679 1.732-.598 2.437.069.103.093.197.199.28.316l.506.613 1.684-5.903z"/></g></g></svg>